<svg width="169" height="44" viewBox="0 0 169 44" fill="none" xmlns="http://www.w3.org/2000/svg">
<path d="M39.2483 28.0035C38.5253 28.0121 37.8187 28.2208 37.2071 28.6065C36.5954 28.9922 36.1025 29.5397 35.783 30.1884C35.4635 30.8371 35.33 31.5616 35.3971 32.2816C35.4642 33.0015 35.7295 33.6888 36.1634 34.2673C34.3818 36.3959 32.1535 38.1062 29.6365 39.2767C27.1196 40.4473 24.3758 41.0493 21.6 41.04C21.0519 41.04 20.5038 41.04 19.9636 40.9696L23.8158 36.9216H26.0473C26.3144 37.4905 26.7674 37.9514 27.3316 38.2283C27.8958 38.5052 28.5375 38.5815 29.1509 38.4447C29.7644 38.3079 30.3128 37.9661 30.7059 37.4757C31.099 36.9853 31.3132 36.3756 31.3132 35.7471C31.3132 35.1186 31.099 34.5089 30.7059 34.0185C30.3128 33.5281 29.7644 33.1863 29.1509 33.0495C28.5375 32.9127 27.8958 32.989 27.3316 33.2659C26.7674 33.5428 26.3144 34.0037 26.0473 34.5726H22.7745L17.1605 40.5389C15.2658 40.084 13.4537 39.3364 11.7893 38.3231L13.4414 36.6788C14.8664 35.2617 16.2131 33.9384 17.552 32.7092C17.8791 32.3895 18.2722 32.1453 18.7037 31.9938C19.1352 31.8423 19.5946 31.7872 20.0497 31.8322C20.9134 31.8831 21.7796 31.87 22.6414 31.7931C24.1166 31.6928 25.5568 31.2985 26.8774 30.6334C28.1979 29.9682 29.3721 29.0456 30.3307 27.9199C31.2894 26.7941 32.0132 25.488 32.4595 24.0784C32.9058 22.6688 33.0657 21.1841 32.9297 19.7118C32.9297 19.5943 32.9297 19.4925 32.9297 19.3907C32.9131 18.9884 32.866 18.5879 32.7887 18.1928L32.3424 15.8438L26.3214 21.8571L21.7018 21.3169L21.1537 16.713L27.1513 10.7232L24.8024 10.2691C24.4099 10.1914 24.012 10.1443 23.6123 10.1281H23.2834C21.8154 9.99423 20.3354 10.1544 18.93 10.5994C17.5247 11.0443 16.2221 11.765 15.0986 12.7194C13.9751 13.6737 13.0532 14.8425 12.3869 16.1574C11.7205 17.4723 11.323 18.9069 11.2177 20.3773C11.1542 21.2374 11.1542 22.101 11.2177 22.9611C11.264 23.4175 11.2094 23.8784 11.0579 24.3114C10.9063 24.7443 10.6615 25.1387 10.3408 25.4666C9.11937 26.7742 7.81963 28.1209 6.37112 29.5773L4.88347 31.0649C4.13487 29.688 3.56145 28.2229 3.17658 26.7037L9.24465 20.9958V17.7387C9.81357 17.4716 10.2745 17.0186 10.5514 16.4544C10.8283 15.8902 10.9046 15.2485 10.7678 14.635C10.631 14.0216 10.2892 13.4731 9.7988 13.0801C9.3084 12.687 8.69867 12.4728 8.07018 12.4728C7.44169 12.4728 6.83196 12.687 6.34156 13.0801C5.85116 13.4731 5.50937 14.0216 5.37256 14.635C5.23574 15.2485 5.31208 15.8902 5.58897 16.4544C5.86587 17.0186 6.32679 17.4716 6.89572 17.7387V19.9701L2.70679 23.885C2.64145 23.2634 2.60747 22.6388 2.60501 22.0137C2.61929 18.1212 3.82614 14.3266 6.06299 11.141C8.29984 7.95541 11.4592 5.53183 15.1156 4.19674C18.772 2.86164 22.7497 2.67916 26.513 3.67387C30.2762 4.66858 33.6442 6.7927 36.1634 9.76012C35.6199 10.4587 35.3293 11.3209 35.3388 12.2059C35.3483 13.0909 35.6574 13.9466 36.2157 14.6334C36.774 15.3201 37.5485 15.7975 38.413 15.9875C39.2774 16.1775 40.1808 16.0689 40.9756 15.6796C41.7704 15.2902 42.4099 14.643 42.7896 13.8436C43.1694 13.0441 43.267 12.1395 43.0666 11.2775C42.8662 10.4154 42.3796 9.64661 41.6862 9.09661C40.9927 8.54661 40.1334 8.24782 39.2483 8.24898C38.9182 8.25059 38.5895 8.29267 38.2696 8.37425C34.7004 3.98233 29.5467 1.17087 23.9218 0.547289C18.297 -0.0762889 12.6526 1.53808 8.20811 5.04161C3.76366 8.54514 0.875962 13.6566 0.168907 19.2715C-0.538147 24.8865 0.992207 30.5543 4.42934 35.0503L6.22236 33.2494C6.6295 32.8501 7.11495 32.3646 8.11716 31.3468C9.58916 29.8748 10.9046 28.5124 12.1417 27.1813C12.7037 26.6036 13.1345 25.9114 13.4047 25.152C13.675 24.3927 13.7783 23.5839 13.7076 22.781C13.6652 22.0399 13.6782 21.2966 13.7468 20.5574C13.8272 19.4116 14.1361 18.2935 14.6551 17.2689C15.1742 16.2443 15.8929 15.3338 16.769 14.5911C18.1685 13.3946 19.919 12.6856 21.7566 12.571L18.5464 15.7812L19.4625 23.611L27.2922 24.5192L30.4946 21.3169C30.3828 23.1537 29.6765 24.9043 28.4824 26.3044C27.7374 27.1786 26.825 27.8949 25.7991 28.4113C24.7731 28.9276 23.6542 29.2336 22.5083 29.311C21.7706 29.3626 21.0301 29.3626 20.2924 29.311C19.4883 29.2403 18.6784 29.3435 17.9177 29.6137C17.1571 29.8839 16.4635 30.3148 15.8843 30.877C14.5297 32.1532 13.1674 33.4686 11.7189 34.9015L9.36992 37.2504L8.95494 37.6654L7.95273 38.6676C10.1394 40.4705 12.6605 41.8238 15.3715 42.6499C18.0825 43.4759 20.9299 43.7585 23.7504 43.4813C26.5708 43.2041 29.3088 42.3727 31.8071 41.0347C34.3054 39.6967 36.5149 37.8785 38.3087 35.6845C38.6286 35.7661 38.9573 35.8081 39.2874 35.8097C40.3257 35.8097 41.3215 35.3973 42.0557 34.6631C42.7899 33.9289 43.2023 32.9332 43.2023 31.8949C43.2023 30.8566 42.7899 29.8608 42.0557 29.1266C41.3215 28.3924 40.3257 27.98 39.2874 27.98L39.2483 28.0035ZM28.5137 34.7214C28.711 34.7199 28.9043 34.7771 29.0691 34.8857C29.2338 34.9944 29.3624 35.1496 29.4387 35.3316C29.5149 35.5136 29.5353 35.7142 29.4971 35.9078C29.459 36.1015 29.3642 36.2794 29.2246 36.4189C29.0851 36.5584 28.9072 36.6533 28.7136 36.6914C28.52 36.7295 28.3194 36.7092 28.1374 36.6329C27.9553 36.5567 27.8001 36.4281 27.6915 36.2633C27.5828 36.0986 27.5256 35.9053 27.5271 35.708C27.5271 35.4463 27.6311 35.1954 27.8161 35.0104C28.0011 34.8253 28.252 34.7214 28.5137 34.7214ZM8.03103 14.2622C8.22836 14.2607 8.42169 14.3179 8.58641 14.4266C8.75113 14.5352 8.87979 14.6904 8.95602 14.8725C9.03225 15.0545 9.0526 15.2551 9.01448 15.4487C8.97636 15.6423 8.8815 15.8202 8.74196 15.9597C8.60243 16.0993 8.42453 16.1941 8.23091 16.2322C8.0373 16.2704 7.83671 16.25 7.6547 16.1738C7.47268 16.0975 7.31746 15.9689 7.2088 15.8042C7.10013 15.6394 7.04293 15.4461 7.04448 15.2488C7.04448 14.9871 7.14842 14.7362 7.33344 14.5512C7.51845 14.3662 7.76938 14.2622 8.03103 14.2622ZM40.642 12.156C40.642 12.4317 40.5603 12.7011 40.4071 12.9303C40.254 13.1595 40.0363 13.3382 39.7816 13.4436C39.527 13.5491 39.2468 13.5767 38.9764 13.5229C38.7061 13.4692 38.4577 13.3364 38.2628 13.1415C38.0679 12.9466 37.9352 12.6983 37.8814 12.4279C37.8276 12.1576 37.8552 11.8773 37.9607 11.6227C38.0662 11.368 38.2448 11.1504 38.474 10.9972C38.7032 10.8441 38.9727 10.7623 39.2483 10.7623C39.4313 10.7623 39.6126 10.7984 39.7816 10.8684C39.9507 10.9385 40.1044 11.0411 40.2338 11.1705C40.3632 11.3 40.4659 11.4536 40.5359 11.6227C40.6059 11.7918 40.642 11.973 40.642 12.156ZM39.2483 33.2964C38.9727 33.2964 38.7032 33.2147 38.474 33.0615C38.2448 32.9084 38.0662 32.6907 37.9607 32.436C37.8552 32.1814 37.8276 31.9011 37.8814 31.6308C37.9352 31.3604 38.0679 31.1121 38.2628 30.9172C38.4577 30.7223 38.7061 30.5896 38.9764 30.5358C39.2468 30.482 39.527 30.5096 39.7816 30.6151C40.0363 30.7206 40.254 30.8992 40.4071 31.1284C40.5603 31.3576 40.642 31.627 40.642 31.9027C40.643 32.0864 40.6077 32.2684 40.5382 32.4384C40.4686 32.6084 40.3661 32.763 40.2366 32.8933C40.1071 33.0235 39.9531 33.1269 39.7835 33.1974C39.6139 33.2679 39.432 33.3042 39.2483 33.3042V33.2964Z" fill="#EC6936"/>
<path d="M70.4502 17.5894L67.8429 8.00573L63.975 16.8769C63.8956 17.139 63.734 17.3686 63.514 17.5318C63.2941 17.695 63.0274 17.7831 62.7535 17.7831C62.4797 17.7831 62.213 17.695 61.9931 17.5318C61.7731 17.3686 61.6115 17.139 61.5321 16.8769L57.6877 8.00573L55.0804 17.5894H52.7314L56.247 4.75638C56.2823 4.47334 56.4243 4.21446 56.6441 4.03257C56.8638 3.85068 57.1446 3.75951 57.4293 3.77766C57.6839 3.77559 57.9335 3.84881 58.1466 3.98812C58.3597 4.12742 58.527 4.3266 58.6273 4.56064L62.8318 14.2069L67.0364 4.58413C67.1233 4.35192 67.2797 4.15216 67.4843 4.01205C67.6889 3.87194 67.9316 3.7983 68.1796 3.80115C68.4567 3.7966 68.726 3.89361 68.9366 4.0739C69.1472 4.25419 69.2845 4.5053 69.3227 4.77987L72.8148 17.6129L70.4502 17.5894Z" fill="#193C72"/>
<path d="M74.396 17.5896V3.9502H86.5713V6.29912H76.7606V15.2094H86.5948V17.5583L74.396 17.5896ZM78.5066 11.6625V9.66592H86.0702V11.6703L78.5066 11.6625Z" fill="#193C72"/>
<path d="M94.8712 17.5903C91.0581 17.5903 88.2472 14.5915 88.2472 10.6297C88.2029 9.74556 88.3435 8.86193 88.6599 8.0352C88.9764 7.20848 89.4618 6.45686 90.0852 5.82834C90.7086 5.19982 91.4562 4.70822 92.2802 4.38495C93.1043 4.06168 93.9868 3.91385 94.8712 3.95089H102.263V6.29982H94.8712C94.2966 6.29029 93.7261 6.39935 93.1955 6.62017C92.6649 6.84099 92.1855 7.16884 91.7873 7.58324C91.389 7.99764 91.0805 8.48969 90.881 9.02867C90.6814 9.56765 90.5951 10.142 90.6275 10.7158C90.5954 11.2918 90.6816 11.8683 90.8807 12.4097C91.0797 12.9512 91.3875 13.4462 91.785 13.8642C92.1826 14.2823 92.6614 14.6146 93.1922 14.8407C93.7229 15.0667 94.2943 15.1818 94.8712 15.1788H102.263V17.5277L94.8712 17.5903Z" fill="#193C72"/>
<path d="M104.204 17.6523V3.9502H106.553V17.6523H104.204ZM115.166 17.6523V11.7173H108.291V9.59545H115.166V3.9502H117.515V17.6523H115.166Z" fill="#193C72"/>
<path d="M59.6998 40.1157C55.8867 40.1157 53.0759 37.1169 53.0759 33.1551C53.0315 32.271 53.1721 31.3873 53.4886 30.5606C53.805 29.7339 54.2904 28.9822 54.9138 28.3537C55.5372 27.7252 56.2848 27.2336 57.1089 26.9103C57.9329 26.5871 58.8154 26.4392 59.6998 26.4763H67.0911V28.8252H59.6998C59.1259 28.8158 58.5561 28.9246 58.0261 29.1449C57.496 29.3653 57.017 29.6924 56.6189 30.106C56.2208 30.5195 55.9121 31.0106 55.712 31.5487C55.512 32.0867 55.4249 32.6602 55.4561 33.2334C55.4229 33.81 55.5083 34.3873 55.7068 34.9297C55.9054 35.4721 56.213 35.968 56.6106 36.387C57.0083 36.8059 57.4875 37.1389 58.0188 37.3654C58.5502 37.592 59.1223 37.7073 59.6998 37.7042H67.0911V40.0531L59.6998 40.1157Z" fill="#193C72"/>
<path d="M75.2579 40.1149C71.4448 40.1149 68.634 37.1161 68.634 33.1543C68.5896 32.2701 68.7302 31.3865 69.0467 30.5598C69.3631 29.7331 69.8486 28.9814 70.4719 28.3529C71.0953 27.7244 71.8429 27.2328 72.667 26.9095C73.491 26.5863 74.3735 26.4384 75.2579 26.4755H78.5778C79.4664 26.4318 80.3543 26.5746 81.1844 26.8948C82.0145 27.215 82.7684 27.7054 83.3975 28.3345C84.0266 28.9636 84.5171 29.7175 84.8372 30.5476C85.1574 31.3777 85.3003 32.2656 85.2566 33.1543C85.2566 37.1161 82.4613 40.1149 78.5778 40.1149H75.2579ZM78.5778 37.766C79.1596 37.7755 79.7372 37.665 80.2744 37.4414C80.8117 37.2178 81.2971 36.886 81.7004 36.4665C82.1038 36.047 82.4163 35.5489 82.6186 35.0033C82.8209 34.4577 82.9087 33.8762 82.8763 33.2952C82.9068 32.7176 82.8173 32.1399 82.6136 31.5986C82.4098 31.0573 82.0961 30.564 81.6923 30.1499C81.2885 29.7358 80.8032 29.4098 80.2672 29.1924C79.7312 28.9751 79.156 28.8711 78.5778 28.887H75.2579C74.684 28.8776 74.1142 28.9864 73.5842 29.2068C73.0541 29.4271 72.5751 29.7542 72.177 30.1678C71.7789 30.5813 71.4702 31.0724 71.2701 31.6105C71.0701 32.1485 70.983 32.722 71.0142 33.2952C70.981 33.8718 71.0664 34.4491 71.2649 34.9915C71.4635 35.5339 71.7711 36.0299 72.1688 36.4488C72.5664 36.8677 73.0457 37.2007 73.577 37.4272C74.1083 37.6538 74.6804 37.7691 75.2579 37.766H78.5778Z" fill="#193C72"/>
<path d="M101.236 26.7901C101.056 26.5943 100.83 26.4463 100.578 26.3595H99.8582C99.5746 26.4489 99.3314 26.6351 99.1711 26.8855C99.0108 27.1359 98.9436 27.4347 98.9812 27.7297V36.3424L89.3506 26.7901C89.2263 26.6422 89.072 26.5224 88.8978 26.4388C88.7237 26.3551 88.5337 26.3094 88.3406 26.3047C87.5576 26.3047 87.1191 26.8449 87.1191 27.7297V40.1164H89.3898V30.1334L98.9812 39.7797C99.1121 39.9138 99.2626 40.0273 99.4275 40.1164C99.6243 40.2245 99.8451 40.281 100.07 40.2808C100.28 40.2841 100.486 40.2271 100.665 40.1164C100.865 39.9772 101.026 39.7871 101.129 39.5656C101.232 39.3441 101.275 39.0991 101.252 38.8558V26.8293L101.236 26.7901Z" fill="#193C72"/>
<path d="M111.006 26.5141V36.497L101.422 26.9838L101.383 26.9447C101.203 26.7488 100.977 26.6009 100.726 26.5141C100.609 26.4762 100.488 26.4577 100.365 26.4592C100.243 26.4565 100.121 26.4751 100.005 26.5141C99.7217 26.6034 99.4785 26.7896 99.3182 27.0401C99.1579 27.2905 99.0907 27.5893 99.1284 27.8843V39.9343C99.2593 40.0684 99.4097 40.1819 99.5747 40.2709H100.812C101.013 40.1318 101.173 39.9417 101.276 39.7202C101.379 39.4986 101.422 39.2537 101.399 39.0104V30.288L110.983 39.9343C111.12 40.0876 111.288 40.2111 111.475 40.2973C111.662 40.3835 111.865 40.4305 112.071 40.4354C112.768 40.4354 113.253 39.9108 113.253 39.0104V26.4827L111.006 26.5141Z" fill="#193C72"/>
<path d="M115.424 40.117V26.4775H127.6V28.8265H117.773V37.7367H127.639V40.0857L115.424 40.117ZM119.535 34.1899V32.1776H127.098V34.1899H119.535Z" fill="#193C72"/>
<path d="M135.915 40.1154C132.109 40.1154 129.291 37.1166 129.291 33.1547C129.248 32.2709 129.389 31.3878 129.706 30.5616C130.023 29.7354 130.508 28.9843 131.131 28.356C131.755 27.7278 132.502 27.2361 133.325 26.9125C134.149 26.5888 135.031 26.4401 135.915 26.4759H143.306V28.8249H135.915C135.341 28.8153 134.772 28.9242 134.242 29.1446C133.712 29.365 133.234 29.6923 132.836 30.106C132.439 30.5197 132.131 31.0109 131.932 31.5489C131.733 32.0869 131.646 32.6602 131.679 33.233C131.645 33.8093 131.729 34.3864 131.927 34.9288C132.124 35.4711 132.431 35.9672 132.828 36.3862C133.225 36.8053 133.704 37.1384 134.235 37.365C134.766 37.5917 135.337 37.707 135.915 37.7038H143.306V40.0527L135.915 40.1154Z" fill="#193C72"/>
<path d="M149.616 40.1159V28.8567H144.441V26.5078H157.18V28.8567H152.004V40.1159H149.616Z" fill="#193C72"/>
<path d="M164.751 26.0612C165.234 26.0411 165.716 26.1189 166.168 26.2898C166.62 26.4606 167.033 26.7211 167.382 27.0556C167.718 27.4022 167.979 27.8136 168.15 28.2646C168.321 28.7156 168.398 29.1967 168.377 29.6786C168.4 30.1601 168.322 30.6411 168.15 31.0913C167.977 31.5414 167.713 31.9509 167.374 32.2937C166.949 32.7382 166.419 33.0697 165.834 33.2582C165.248 33.4467 164.624 33.4863 164.019 33.3734C163.415 33.2604 162.847 32.9986 162.369 32.6114C161.891 32.2243 161.516 31.7241 161.28 31.156C161.044 30.5879 160.952 29.9698 161.015 29.3577C161.077 28.7455 161.291 28.1585 161.637 27.6497C161.983 27.1409 162.45 26.7264 162.997 26.4436C163.543 26.1608 164.152 26.0186 164.767 26.0299L164.751 26.0612ZM164.751 32.5913C165.14 32.6111 165.528 32.5519 165.893 32.4173C166.257 32.2827 166.591 32.0755 166.873 31.8083C167.14 31.5289 167.347 31.198 167.482 30.8358C167.616 30.4737 167.676 30.0879 167.656 29.7021C167.684 29.3121 167.628 28.9208 167.492 28.5543C167.356 28.1877 167.143 27.8543 166.868 27.5764C166.594 27.2985 166.262 27.0825 165.897 26.9427C165.532 26.803 165.142 26.7427 164.751 26.7659C163.981 26.7659 163.242 27.072 162.697 27.6167C162.153 28.1615 161.847 28.9003 161.847 29.6708C161.847 30.4412 162.153 31.18 162.697 31.7248C163.242 32.2696 163.981 32.5756 164.751 32.5756V32.5913ZM165.761 29.06C165.64 28.9111 165.486 28.7929 165.31 28.7154C165.135 28.6378 164.943 28.603 164.751 28.6137C164.607 28.6034 164.462 28.6247 164.327 28.676C164.192 28.7274 164.069 28.8077 163.968 28.9113C163.772 29.1238 163.668 29.4053 163.679 29.6943C163.671 29.9842 163.778 30.2655 163.976 30.4772C164.079 30.579 164.201 30.6585 164.336 30.7111C164.471 30.7636 164.615 30.7879 164.759 30.7826C164.943 30.7946 165.128 30.7608 165.296 30.6843C165.464 30.6078 165.61 30.4909 165.722 30.3441C165.73 30.3272 165.742 30.3126 165.757 30.3016C165.772 30.2907 165.79 30.2837 165.808 30.2815C165.834 30.2731 165.861 30.2731 165.887 30.2815L166.325 30.6808C166.38 30.7199 166.388 30.7669 166.325 30.8374C166.151 31.0893 165.917 31.2931 165.643 31.43C165.369 31.5669 165.065 31.6324 164.759 31.6204C164.499 31.6328 164.238 31.5904 163.995 31.4959C163.752 31.4013 163.531 31.2567 163.347 31.0714C163.163 30.8861 163.021 30.6643 162.928 30.4204C162.835 30.1764 162.795 29.9157 162.81 29.6551C162.795 29.3865 162.84 29.1179 162.941 28.8687C163.043 28.6196 163.198 28.3961 163.397 28.2144C163.774 27.8743 164.267 27.6897 164.775 27.6977C165.088 27.6945 165.399 27.7614 165.683 27.8934C165.958 28.0257 166.191 28.2317 166.357 28.4885C166.396 28.5511 166.357 28.5981 166.357 28.6216L165.895 29.0366C165.874 29.0437 165.852 29.0437 165.832 29.0366C165.832 29.0366 165.769 29.0366 165.738 28.9661L165.761 29.06Z" fill="#193C72"/>
</svg>
